# Blender v3.0.0 OBJ File: ''
# www.blender.org
mtllib FUCKINGGRENADESCALED.mtl
o granade
v -0.001854 0.035781 -0.061034
v -0.001854 0.059889 -0.056238
v 0.015194 0.052829 -0.056238
v 0.022256 0.035781 -0.056238
v 0.015194 0.018733 -0.056238
v -0.001854 0.011671 -0.056238
v -0.018902 0.018733 -0.056238
v -0.025962 0.035781 -0.056238
v -0.018902 0.052829 -0.056238
v -0.001854 0.080329 -0.042582
v -0.001854 0.093985 -0.022142
v 0.039304 0.076937 -0.022142
v 0.029646 0.067281 -0.042582
v -0.043010 0.076937 -0.022142
v -0.045854 0.079781 -0.001920
v -0.001854 0.098007 -0.001920
v -0.001854 0.080329 0.046514
v -0.001854 0.059889 0.060170
v 0.015194 0.052829 0.060170
v 0.029646 0.067281 0.046514
v -0.001854 0.098007 0.005852
v -0.001854 0.093985 0.026076
v 0.039304 0.076937 0.026076
v 0.042148 0.079781 0.005852
v -0.001854 0.016493 0.061130
v 0.011784 0.022143 0.061130
v 0.011784 0.022143 0.072184
v -0.001854 0.016493 0.072184
v 0.022256 0.035781 0.060170
v 0.042694 0.035781 0.046514
v 0.042694 0.035781 -0.042582
v 0.060374 0.035781 0.005852
v 0.056350 0.035781 0.026076
v 0.039304 -0.005377 0.026076
v 0.042148 -0.008221 0.005852
v 0.017434 0.035781 0.061130
v 0.017434 0.035781 0.072184
v 0.056350 0.035781 -0.022142
v 0.042148 0.079781 -0.001920
v 0.060374 0.035781 -0.001920
v 0.029646 0.004281 -0.042582
v -0.001854 -0.022423 0.026076
v -0.001854 -0.026447 0.005852
v 0.029646 0.004281 0.046514
v 0.011784 0.049419 0.061130
v -0.001854 0.055067 0.061130
v -0.001854 0.055067 0.072184
v 0.011784 0.049419 0.072184
v 0.039304 -0.005377 -0.022142
v 0.042148 -0.008221 -0.001920
v 0.015194 0.018733 0.060170
v -0.015492 0.022143 0.061130
v -0.015492 0.022143 0.072184
v -0.001854 -0.022423 -0.022142
v -0.001854 -0.008767 -0.042582
v -0.001854 -0.026447 -0.001920
v -0.001854 0.011671 0.060170
v -0.001854 -0.008767 0.046514
v -0.043010 -0.005377 0.026076
v -0.045854 -0.008221 0.005852
v -0.043010 -0.005377 -0.022142
v -0.033354 0.004281 -0.042582
v -0.045854 -0.008221 -0.001920
v -0.018902 0.018733 0.060170
v -0.033354 0.004281 0.046514
v -0.060058 0.035781 0.026076
v -0.064080 0.035781 0.005852
v 0.013278 0.050913 0.072184
v 0.019546 0.035781 0.072184
v -0.046402 0.035781 -0.042582
v -0.043010 0.076937 0.026076
v -0.045854 0.079781 0.005852
v -0.046402 0.035781 0.046514
v -0.015492 0.049419 0.061130
v -0.021140 0.035781 0.061130
v -0.021140 0.035781 0.072184
v -0.015492 0.049419 0.072184
v -0.060058 0.035781 -0.022142
v -0.064080 0.035781 -0.001920
v -0.025962 0.035781 0.060170
v -0.033354 0.067281 0.046514
v -0.033354 0.067281 -0.042582
v -0.018902 0.052829 0.060170
v -0.016986 0.020649 0.072184
v -0.023254 0.035781 0.072184
v -0.021140 0.035781 0.076864
v -0.015492 0.049419 0.076864
v -0.016986 0.050913 0.076864
v -0.023254 0.035781 0.076864
v 0.011784 0.022143 0.076864
v -0.001854 0.016493 0.076864
v -0.001854 0.014381 0.076864
v 0.013278 0.020649 0.076864
v -0.015492 0.022143 0.076864
v -0.016986 0.020649 0.076864
v 0.017434 0.035781 0.076864
v 0.019546 0.035781 0.076864
v -0.016986 0.050913 0.072184
v -0.001854 0.014381 0.072184
v 0.013278 0.020649 0.072184
v 0.013278 0.050913 0.076864
v -0.001854 0.057179 0.072184
v -0.001854 0.057179 0.076864
v -0.001854 0.055067 0.076864
v 0.011784 0.049419 0.076864
v -0.001854 0.100779 0.001966
v 0.044108 0.081741 0.001966
v 0.063144 0.035781 0.001966
v 0.044108 -0.010181 0.001966
v -0.001854 -0.029217 0.001966
v -0.047814 -0.010181 0.001966
v -0.066852 0.035781 0.001966
v -0.047814 0.081741 0.001966
v -0.001854 0.013967 0.076864
v -0.001854 0.020357 0.092546
v -0.017278 0.020357 0.076864
v -0.017278 0.051205 0.076864
v -0.001854 0.051205 0.092546
v -0.001854 0.057593 0.076864
v 0.013570 0.020357 0.076864
v 0.013570 0.051205 0.076864
v -0.023666 0.035781 0.076864
v -0.017278 0.020357 0.116710
v -0.023666 0.035781 0.116710
v -0.017278 0.051205 0.116710
v 0.038602 0.051205 0.076864
v 0.029934 0.051205 0.116710
v 0.029934 0.020357 0.116710
v 0.038602 0.020357 0.076864
v -0.029530 0.027871 0.108650
v -0.032148 0.027871 0.109734
v -0.032148 0.043689 0.109734
v -0.029530 0.043689 0.108650
v -0.033232 0.027871 0.112350
v -0.033232 0.043689 0.112350
v -0.032148 0.027871 0.114966
v -0.032148 0.043689 0.114966
v -0.029530 0.027871 0.116050
v -0.029530 0.043689 0.116050
v -0.026914 0.027871 0.114966
v -0.026914 0.043689 0.114966
v -0.025830 0.027871 0.112350
v -0.025830 0.043689 0.112350
v -0.029530 0.021415 0.108650
v -0.032148 0.021415 0.109734
v -0.026914 0.027871 0.109734
v -0.019774 0.027871 0.104640
v -0.019774 0.027871 0.109710
v -0.026914 0.043689 0.109734
v -0.019774 0.043689 0.104640
v -0.019774 0.043689 0.102538
v -0.026914 0.021415 0.109734
v -0.019774 0.043689 0.109710
v -0.019774 0.027871 0.102538
v -0.032148 0.050147 0.114966
v -0.033232 0.050147 0.112350
v -0.029530 0.050147 0.108650
v -0.026914 0.050147 0.109734
v -0.032148 0.050147 0.109734
v -0.026914 0.021415 0.114966
v -0.025830 0.021415 0.112350
v -0.025830 0.050147 0.112350
v -0.026914 0.050147 0.114966
v -0.032148 0.021415 0.114966
v -0.029530 0.021415 0.116050
v -0.029530 0.050147 0.116050
v -0.033232 0.021415 0.112350
v -0.017278 0.043689 0.120984
v -0.017278 0.043689 0.116710
v -0.017278 0.027871 0.116710
v -0.017278 0.027871 0.120984
v 0.042246 0.022773 0.082022
v 0.042246 0.048787 0.082022
v 0.048982 0.048787 0.064768
v 0.048982 0.022773 0.064768
v 0.025114 0.053791 0.115022
v 0.027510 0.053791 0.112608
v 0.027510 0.051289 0.112608
v 0.025114 0.051289 0.115022
v 0.020128 0.053791 0.106218
v 0.020128 0.051289 0.106218
v 0.061546 0.035781 -0.069874
v 0.061814 0.048787 -0.062432
v 0.067950 0.048787 -0.062432
v 0.067682 0.035781 -0.069874
v 0.025060 0.053791 0.092130
v 0.025060 0.051289 0.092130
v 0.025060 0.020271 0.092130
v 0.025060 0.017769 0.092130
v 0.020128 0.017769 0.106218
v 0.020128 0.020271 0.106218
v 0.036014 0.051289 0.088792
v 0.036014 0.053791 0.088792
v 0.036014 0.017769 0.088792
v 0.036014 0.020271 0.088792
v 0.027510 0.020271 0.112608
v 0.027510 0.017769 0.112608
v 0.061814 0.022773 -0.062432
v 0.067950 0.022773 -0.062432
v 0.005896 0.020271 0.115022
v 0.017982 0.020271 0.109698
v 0.017982 0.017769 0.109698
v 0.005896 0.017769 0.115022
v -0.010348 0.017769 0.115022
v -0.010348 0.020271 0.115022
v -0.011598 0.053791 0.116710
v -0.010348 0.053791 0.115022
v -0.010348 0.051289 0.115022
v -0.011598 0.051289 0.116710
v -0.011598 0.020271 0.116710
v -0.011598 0.017769 0.116710
v 0.025114 0.017769 0.115022
v 0.025114 0.020271 0.115022
v 0.005896 0.053791 0.115022
v 0.005896 0.051289 0.115022
v 0.017982 0.053791 0.109698
v 0.017982 0.051289 0.109698
v 0.036014 0.048787 0.088792
v 0.036014 0.022773 0.088792
v 0.033842 0.053791 0.116710
v 0.029934 0.053791 0.120984
v 0.029934 0.017769 0.120984
v 0.033842 0.017769 0.116710
v -0.025830 0.027871 0.112350
v -0.025830 0.022773 0.112350
v -0.017278 0.022773 0.120984
v -0.023450 0.043643 0.111298
v -0.023450 0.048787 0.111298
v -0.017278 0.048787 0.116710
v -0.017278 0.048787 0.120984
v -0.025830 0.048787 0.112350
v -0.025830 0.043643 0.112350
v 0.062702 0.048787 0.003496
v 0.062702 0.022773 0.003496
v -0.026914 0.048787 0.109734
v -0.026914 0.043643 0.109734
v -0.017278 0.022773 0.116710
v -0.023450 0.022773 0.111298
v -0.023450 0.027871 0.111298
v -0.024982 0.022773 0.108344
v -0.029530 0.022773 0.106490
v -0.029530 0.027871 0.106490
v -0.024982 0.027871 0.108344
v -0.026914 0.027871 0.109734
v -0.029530 0.027871 0.108650
v -0.029530 0.022773 0.108650
v -0.026914 0.022773 0.109734
v -0.024982 0.043643 0.108344
v -0.024982 0.048787 0.108344
v 0.056830 0.022773 0.066884
v 0.071292 0.022773 0.003496
v 0.071292 0.048787 0.003496
v 0.056830 0.048787 0.066884
v -0.029530 0.048787 0.108650
v -0.029530 0.043643 0.108650
v -0.029530 0.043643 0.106490
v -0.029530 0.048787 0.106490
v -0.032148 0.043643 0.109734
v -0.032148 0.048787 0.109734
v -0.032918 0.048787 0.108038
v -0.032918 0.043643 0.108038
v -0.032148 0.022773 0.109734
v -0.032148 0.027871 0.109734
v -0.032918 0.027871 0.108038
v -0.032918 0.022773 0.108038
v 0.045348 0.022773 0.092026
v -0.011598 0.017769 0.120984
v 0.045348 0.017769 0.092026
v 0.045348 0.048787 0.092026
v 0.029934 0.020271 0.116710
v 0.029934 0.051289 0.116710
v -0.011598 0.048787 0.120984
v -0.011598 0.053791 0.120984
v -0.011598 0.048787 0.116710
v 0.045348 0.053791 0.092026
v -0.011598 0.022773 0.120984
v -0.011598 0.022773 0.116710
v 0.046600 0.014221 0.093680
v 0.027248 0.018263 0.100602
v 0.027248 0.017253 0.103436
v 0.047970 0.012925 0.096024
v 0.027248 0.014289 0.102922
v 0.046600 0.010247 0.096000
v 0.054614 0.004463 0.076968
v 0.056554 0.002475 0.078128
v 0.054614 0.000489 0.079288
v 0.046600 -0.005295 0.060256
v 0.047970 -0.007973 0.060234
v 0.046600 -0.009269 0.062578
v 0.027248 -0.009337 0.053334
v 0.027248 -0.012301 0.052820
v 0.027248 -0.013311 0.055656
v 0.007896 -0.005295 0.060256
v 0.006526 -0.007973 0.060234
v 0.007896 -0.009269 0.062578
v -0.000120 0.004463 0.076968
v -0.002058 0.002475 0.078128
v -0.000120 0.000489 0.079288
v 0.007896 0.014221 0.093680
v 0.006526 0.012925 0.096024
v 0.007896 0.010247 0.096000
v 0.009266 0.011543 0.093656
v 0.027248 0.015299 0.100088
v 0.001818 0.002475 0.078128
v 0.009266 -0.006591 0.062600
v 0.027248 -0.010347 0.056168
v 0.045228 -0.006591 0.062600
v 0.052676 0.002475 0.078128
v 0.045228 0.011543 0.093656
v 0.024646 0.054261 0.099652
v 0.027678 0.013799 0.099684
v 0.025848 0.013633 0.099512
v 0.022816 0.054095 0.099482
v 0.027326 0.013883 0.103356
v 0.025496 0.013717 0.103186
v 0.038156 0.059915 0.100880
v 0.024554 0.055327 0.099620
v 0.024202 0.055411 0.103294
v 0.037804 0.059999 0.104552
v 0.022464 0.054179 0.103154
v 0.029508 0.013965 0.099856
v 0.026478 0.054429 0.099824
v 0.026126 0.054513 0.103498
v 0.029156 0.014051 0.103528
v 0.024296 0.054345 0.103326
v 0.038250 0.058849 0.100912
v 0.037898 0.058933 0.104586
v 0.009588 0.055495 0.101804
v 0.009494 0.056559 0.101770
v 0.009846 0.056477 0.098098
v 0.009940 0.055411 0.098130
vt 0.687500 1.000000
vt 0.750000 0.875000
vt 0.625000 0.875000
vt 0.562500 1.000000
vt 0.500000 0.875000
vt 0.437500 1.000000
vt 0.375000 0.875000
vt 0.312500 1.000000
vt 0.250000 0.875000
vt 0.187500 1.000000
vt 0.125000 0.875000
vt 0.062500 1.000000
vt 0.000000 0.875000
vt 0.937500 1.000000
vt 1.000000 0.875000
vt 0.875000 0.875000
vt 0.812500 1.000000
vt 0.750000 0.750000
vt 0.750000 0.625000
vt 0.625000 0.625000
vt 0.625000 0.750000
vt 0.875000 0.625000
vt 0.875000 0.520150
vt 0.750000 0.520150
vt 0.750000 0.250000
vt 0.750000 0.125000
vt 0.625000 0.125000
vt 0.625000 0.250000
vt 0.750000 0.479850
vt 0.750000 0.375000
vt 0.625000 0.375000
vt 0.625000 0.479850
vt 0.262500 0.100000
vt 0.362500 0.100000
vt 0.362500 0.100000
vt 0.262500 0.100000
vt 0.500000 0.125000
vt 0.500000 0.250000
vt 0.500000 0.750000
vt 0.500000 0.479850
vt 0.500000 0.375000
vt 0.375000 0.375000
vt 0.375000 0.479850
vt 0.387500 0.100000
vt 0.487500 0.100000
vt 0.487500 0.100000
vt 0.387500 0.100000
vt 0.500000 0.625000
vt 0.625000 0.520150
vt 0.500000 0.520150
vt 0.375000 0.750000
vt 0.250000 0.375000
vt 0.250000 0.479850
vt 0.375000 0.250000
vt 0.637500 0.100000
vt 0.737500 0.100000
vt 0.737500 0.100000
vt 0.637500 0.100000
vt 0.375000 0.625000
vt 0.375000 0.520150
vt 0.375000 0.125000
vt 0.137500 0.100000
vt 0.237500 0.100000
vt 0.237500 0.100000
vt 0.137500 0.100000
vt 0.250000 0.625000
vt 0.250000 0.750000
vt 0.250000 0.520150
vt 0.250000 0.125000
vt 0.250000 0.250000
vt 0.125000 0.375000
vt 0.125000 0.479850
vt 0.125000 0.625000
vt 0.125000 0.750000
vt 0.125000 0.520150
vt 0.125000 0.125000
vt 0.125000 0.250000
vt 0.000000 0.375000
vt 0.000000 0.479850
vt 0.512500 0.100000
vt 0.612500 0.100000
vt 0.612500 0.100000
vt 0.512500 0.100000
vt 0.000000 0.750000
vt 1.000000 0.479850
vt 1.000000 0.375000
vt 0.875000 0.375000
vt 0.875000 0.479850
vt 0.000000 0.250000
vt 0.887500 0.100000
vt 0.987500 0.100000
vt 0.987500 0.100000
vt 0.887500 0.100000
vt 0.000000 0.625000
vt 0.000000 0.520150
vt 0.000000 0.125000
vt 1.000000 0.250000
vt 0.875000 0.250000
vt 0.012500 0.100000
vt 0.112500 0.100000
vt 0.112500 0.100000
vt 0.012500 0.100000
vt 1.000000 0.750000
vt 1.000000 0.625000
vt 0.875000 0.750000
vt 1.000000 0.520150
vt 1.000000 0.125000
vt 0.875000 0.125000
vt 0.512500 0.100000
vt 0.612500 0.100000
vt 0.862500 0.100000
vt 0.762500 0.100000
vt 0.862500 0.100000
vt 0.762500 0.100000
vt 0.112500 0.100000
vt 0.012500 0.100000
vt 0.012500 0.100000
vt 0.887500 0.100000
vt 0.887500 0.100000
vt 0.012500 0.100000
vt 0.387500 0.100000
vt 0.262500 0.100000
vt 0.262500 0.100000
vt 0.387500 0.100000
vt 0.137500 0.100000
vt 0.137500 0.100000
vt 0.512500 0.100000
vt 0.512500 0.100000
vt 0.987500 0.100000
vt 0.887500 0.100000
vt 0.137500 0.100000
vt 0.237500 0.100000
vt 0.237500 0.100000
vt 0.387500 0.100000
vt 0.487500 0.100000
vt 0.487500 0.100000
vt 0.612500 0.100000
vt 0.762500 0.100000
vt 0.862500 0.100000
vt 0.862500 0.100000
vt 0.762500 0.100000
vt 0.112500 0.100000
vt 0.262500 0.100000
vt 0.362500 0.100000
vt 0.362500 0.100000
vt 0.987500 0.100000
vt 0.637500 0.100000
vt 0.737500 0.100000
vt 0.737500 0.100000
vt 0.637500 0.100000
vt 0.762500 0.100000
vt 0.637500 0.100000
vt 0.750000 0.500000
vt 0.625000 0.500000
vt 0.500000 0.500000
vt 0.375000 0.500000
vt 0.250000 0.500000
vt 0.125000 0.500000
vt 0.000450 0.500000
vt 0.875000 0.500000
vt 0.999550 0.500000
vt 0.375000 0.125000
vt 0.500000 0.125000
vt 0.375000 0.000000
vt 0.500000 0.750000
vt 0.500000 0.625000
vt 0.375000 0.625000
vt 0.500000 0.187500
vt 0.375000 0.562500
vt 0.375000 0.875000
vt 0.500000 1.000000
vt 0.625000 1.000000
vt 0.625000 0.875000
vt 0.625000 0.750000
vt 0.375000 0.750000
vt 0.375000 0.500000
vt 0.625000 0.500000
vt 0.625000 0.250000
vt 0.375000 0.250000
vt 1.000000 0.500000
vt 0.875000 0.500000
vt 0.875000 0.000000
vt 1.000000 0.000000
vt 0.750000 0.500000
vt 0.750000 0.000000
vt 0.625000 0.500000
vt 0.625000 0.000000
vt 0.500000 0.500000
vt 0.500000 0.000000
vt 0.375000 0.500000
vt 0.375000 0.000000
vt 0.250000 0.500000
vt 0.250000 0.000000
vt 1.000000 0.500000
vt 0.875000 0.500000
vt 0.580290 0.580290
vt 0.580290 0.580290
vt 0.510000 0.750000
vt 0.510000 0.750000
vt 0.080290 0.580290
vt 0.080290 0.580290
vt 0.250000 0.510000
vt 0.250000 0.510000
vt 0.580290 0.580290
vt 0.750000 0.510000
vt 0.750000 0.510000
vt 0.250000 0.500000
vt 0.125000 0.500000
vt 0.125000 0.000000
vt 0.250000 0.000000
vt 0.000000 0.500000
vt 0.000000 0.000000
vt 1.000000 0.000000
vt 1.000000 0.500000
vt 0.750000 0.510000
vt 0.010000 0.750000
vt 0.010000 0.750000
vt 0.625000 0.000000
vt 0.750000 0.000000
vt 0.250000 0.510000
vt 0.080290 0.580290
vt 0.875000 0.000000
vt 1.000000 0.000000
vt 0.375000 0.500000
vt 0.250000 0.500000
vt 0.250000 0.000000
vt 0.375000 0.000000
vt 0.625000 0.500000
vt 0.500000 0.500000
vt 0.500000 0.000000
vt 0.750000 0.500000
vt 0.510000 0.750000
vt 0.010000 0.750000
vt 0.500000 0.562500
vt 0.875000 0.375000
vt 0.875000 0.500000
vt 0.875000 0.250000
vt 0.625000 0.000000
vt 0.500000 0.000000
vt 0.375000 0.187500
vt 0.312500 0.500000
vt 0.125000 0.500000
vt 0.125000 0.375000
vt 0.125000 0.250000
vt 0.312500 0.250000
vt 0.250000 0.250000
vt 0.250000 0.500000
vt 0.419710 0.919710
vt 0.419710 0.580290
vt 0.490000 0.750000
vt 0.250000 0.990000
vt 0.080290 0.919710
vt 0.919710 0.580290
vt 0.919710 0.919710
vt 0.990000 0.750000
vt 0.750000 0.990000
vt 0.580290 0.919710
vt 0.375000 0.312500
vt 0.625000 0.312500
vt 0.625000 0.437500
vt 0.375000 0.437500
vt 0.750000 0.500000
vt 0.750000 0.250000
vt 0.750000 0.250000
vt 0.750000 0.500000
vt 0.625000 0.125000
vt 0.625000 0.125000
vt 0.625000 0.125000
vt 0.625000 0.125000
vt 0.625000 0.125000
vt 0.625000 0.125000
vt 0.750000 0.375000
vt 0.750000 0.250000
vt 0.875000 0.250000
vt 0.875000 0.375000
vt 0.750000 0.250000
vt 0.750000 0.250000
vt 0.750000 0.250000
vt 0.750000 0.250000
vt 0.750000 0.500000
vt 0.750000 0.500000
vt 0.750000 0.500000
vt 0.750000 0.500000
vt 0.750000 0.250000
vt 0.750000 0.250000
vt 0.750000 0.500000
vt 0.750000 0.500000
vt 0.625000 0.625000
vt 0.625000 0.625000
vt 0.625000 0.625000
vt 0.625000 0.625000
vt 0.750000 0.500000
vt 0.875000 0.500000
vt 0.716130 0.500000
vt 0.716130 0.500000
vt 0.716130 0.500000
vt 0.716130 0.500000
vt 0.687500 0.500000
vt 0.687500 0.500000
vt 0.625000 0.187500
vt 0.625000 0.187500
vt 0.625000 0.187500
vt 0.625000 0.187500
vt 0.625000 0.562500
vt 0.625000 0.562500
vt 0.625000 0.562500
vt 0.625000 0.562500
vt 0.625000 0.625000
vt 0.625000 0.625000
vt 0.625000 0.625000
vt 0.625000 0.625000
vt 0.687500 0.250000
vt 0.687500 0.250000
vt 0.716130 0.250000
vt 0.716130 0.250000
vt 0.716130 0.250000
vt 0.716130 0.250000
vt 0.625000 0.125000
vt 0.625000 0.125000
vt 0.750000 0.250000
vt 0.750000 0.500000
vt 0.625000 1.000000
vt 0.375000 1.000000
vt 0.375000 0.750000
vt 0.625000 0.750000
vt 0.375000 0.437500
vt 0.375000 0.500000
vt 0.375000 0.500000
vt 0.625000 0.312500
vt 0.625000 0.250000
vt 0.625000 0.250000
vt 0.375000 0.250000
vt 0.375000 0.250000
vt 0.375000 0.312500
vt 0.750000 0.250000
vt 0.750000 0.500000
vt 0.375000 0.250000
vt 0.375000 0.312500
vt 0.625000 0.500000
vt 0.625000 0.500000
vt 0.625000 0.437500
vt 0.625000 0.500000
vt 0.625000 0.500000
vt 0.625000 0.437500
vt 0.625000 0.437500
vt 0.375000 0.437500
vt 0.375000 0.437500
vt 0.375000 0.500000
vt 0.375000 0.500000
vt 0.625000 0.312500
vt 0.625000 0.250000
vt 0.625000 0.750000
vt 0.625000 0.750000
vt 0.625000 1.000000
vt 0.625000 1.000000
vt 0.375000 0.250000
vt 0.375000 0.312500
vt 0.625000 0.312500
vt 0.625000 0.250000
vt 0.375000 0.312500
vt 0.375000 0.250000
vt 0.625000 0.250000
vt 0.625000 0.312500
vt 0.375000 0.500000
vt 0.375000 0.437500
vt 0.625000 0.437500
vt 0.625000 0.500000
vt 0.625000 0.625000
vt 0.625000 0.750000
vt 0.625000 0.625000
vt 0.625000 0.750000
vt 0.625000 0.625000
vt 0.625000 0.625000
vt 0.625000 0.625000
vt 0.625000 1.000000
vt 0.625000 0.875000
vt 0.375000 0.625000
vt 0.625000 0.591130
vt 0.625000 0.591130
vt 0.625000 0.625000
vt 0.625000 0.750000
vt 0.625000 0.625000
vt 0.625000 0.125000
vt 0.625000 0.125000
vt 0.625000 0.000000
vt 0.625000 0.000000
vt 0.625000 0.000000
vt 0.625000 0.125000
vt 0.625000 0.000000
vt 0.625000 0.125000
vt 0.625000 0.125000
vt 0.750000 0.500000
vt 0.750000 0.500000
vt 0.687500 0.500000
vt 0.750000 0.500000
vt 0.750000 0.250000
vt 0.375000 0.187500
vt 0.375000 0.187500
vt 0.625000 0.187500
vt 0.625000 0.125000
vt 0.625000 0.000000
vt 0.625000 0.000000
vt 0.625000 0.125000
vt 0.375000 0.125000
vt 0.625000 0.158870
vt 0.625000 0.125000
vt 0.750000 0.250000
vt 0.687500 0.250000
vt 0.250000 0.250000
vt 0.312500 0.500000
vt 0.250000 0.500000
vt 0.312500 0.500000
vt 0.312500 0.250000
vt 0.312500 0.250000
vt 0.625000 0.562500
vt 0.375000 0.625000
vt 0.687500 0.500000
vt 0.687500 0.250000
vt 0.625000 0.625000
vt 0.625000 1.000000
vt 0.625000 1.000000
vt 0.908480 0.591520
vt 0.750000 0.525870
vt 0.750000 0.510000
vt 0.919710 0.580290
vt 0.250000 0.525870
vt 0.408480 0.591520
vt 0.419710 0.580290
vt 0.250000 0.510000
vt 0.974130 0.750000
vt 0.990000 0.750000
vt 0.474130 0.750000
vt 0.490000 0.750000
vt 0.908480 0.908480
vt 0.919710 0.919710
vt 0.408480 0.908480
vt 0.419710 0.919710
vt 0.750000 0.974130
vt 0.750000 0.990000
vt 0.250000 0.974130
vt 0.250000 0.990000
vt 0.591520 0.908480
vt 0.580290 0.919710
vt 0.091520 0.908480
vt 0.080290 0.919710
vt 0.525870 0.750000
vt 0.510000 0.750000
vt 0.025870 0.750000
vt 0.010000 0.750000
vt 0.591520 0.591520
vt 0.580290 0.580290
vt 0.091520 0.591520
vt 0.080290 0.580290
vt 0.102740 0.602740
vt 0.250000 0.541750
vt 0.041750 0.750000
vt 0.102740 0.897260
vt 0.250000 0.958250
vt 0.397260 0.897260
vt 0.458250 0.750000
vt 0.397260 0.602740
vt 0.750000 0.541750
vt 0.602740 0.602740
vt 0.541750 0.750000
vt 0.602740 0.897260
vt 0.750000 0.958250
vt 0.897260 0.897260
vt 0.958250 0.750000
vt 0.897260 0.602740
vt 0.500000 0.986530
vt 0.500000 0.750000
vt 0.625000 0.750000
vt 0.625000 0.986530
vt 0.500000 0.500000
vt 0.625000 0.500000
vt 0.375000 0.000000
vt 0.500000 0.000000
vt 0.500000 0.250000
vt 0.375000 0.250000
vt 0.625000 0.263470
vt 0.875000 0.263470
vt 0.875000 0.500000
vt 0.125000 0.500000
vt 0.125000 0.263470
vt 0.375000 0.263470
vt 0.375000 0.500000
vt 0.500000 0.263470
vt 0.125000 0.263470
vt 0.125000 0.250000
vt 0.375000 0.263470
vt 0.625000 0.263470
vt 0.625000 0.250000
vt 0.875000 0.250000
vt 0.875000 0.263470
vt 0.625000 0.000000
vt 0.375000 0.750000
vt 0.375000 0.986530
vt 0.500000 1.000000
vt 0.625000 0.986530
vt 0.625000 1.000000
vt 0.375000 1.000000
vt 0.375000 0.986530
vn 0.0805 0.1945 -0.9776
vn 0.1945 0.0806 -0.9776
vn 0.1945 -0.0806 -0.9776
vn 0.0806 -0.1945 -0.9776
vn -0.0806 -0.1945 -0.9776
vn -0.1945 -0.0805 -0.9776
vn -0.1945 0.0805 -0.9776
vn -0.0805 0.1945 -0.9776
vn 0.3256 0.7862 -0.5252
vn 0.3256 0.7862 -0.5253
vn -0.3764 0.9087 -0.1807
vn 0.2242 0.5414 0.8103
vn 0.2243 0.5414 0.8103
vn 0.2243 0.5414 -0.8103
vn 0.2242 0.5414 -0.8103
vn 0.3764 0.9087 0.1807
vn 0.3256 0.7862 0.5253
vn 0.3256 0.7861 0.5253
vn 0.3827 -0.9239 0.0000
vn 0.5414 0.2243 0.8103
vn 0.5414 0.2243 -0.8103
vn 0.9087 -0.3763 0.1808
vn 0.9087 -0.3764 0.1807
vn 0.7861 0.3256 0.5253
vn 0.7862 0.3256 0.5253
vn 0.9239 -0.3827 -0.0000
vn 0.7862 0.3256 -0.5253
vn 0.7862 0.3257 -0.5252
vn 0.9087 0.3764 -0.1807
vn 0.9087 0.3763 -0.1808
vn 0.5414 -0.2243 -0.8103
vn 0.3763 -0.9087 0.1807
vn 0.3764 -0.9087 0.1808
vn 0.7862 -0.3256 0.5253
vn 0.7861 -0.3256 0.5253
vn 0.3826 0.9239 0.0000
vn 0.7862 -0.3256 -0.5253
vn 0.7861 -0.3256 -0.5253
vn 0.9087 -0.3764 -0.1808
vn 0.9087 -0.3763 -0.1807
vn 0.5414 -0.2243 0.8103
vn -0.3827 -0.9239 0.0000
vn 0.3256 -0.7862 -0.5253
vn 0.3257 -0.7862 -0.5252
vn 0.3764 -0.9087 -0.1807
vn 0.3763 -0.9087 -0.1808
vn 0.2243 -0.5414 0.8103
vn 0.2243 -0.5414 -0.8103
vn -0.3764 -0.9087 0.1808
vn -0.3764 -0.9087 0.1807
vn 0.3256 -0.7861 0.5254
vn 0.3256 -0.7862 0.5253
vn -0.3256 -0.7862 -0.5253
vn -0.3256 -0.7861 -0.5253
vn -0.3764 -0.9086 -0.1808
vn -0.3764 -0.9087 -0.1807
vn -0.2243 -0.5414 0.8103
vn -0.2243 -0.5414 -0.8103
vn -0.9087 -0.3764 0.1807
vn -0.3256 -0.7862 0.5253
vn -0.3256 -0.7861 0.5253
vn -0.0000 0.0000 -1.0000
vn -0.5414 -0.2243 -0.8103
vn -0.5414 -0.2242 -0.8103
vn -0.9087 0.3764 0.1807
vn -0.7861 -0.3256 0.5253
vn -0.7862 -0.3256 0.5253
vn -0.9239 0.3826 0.0000
vn -0.7862 -0.3256 -0.5253
vn -0.7862 -0.3257 -0.5252
vn -0.9087 -0.3764 -0.1807
vn -0.5414 -0.2242 0.8103
vn -0.5414 -0.2243 0.8103
vn -0.7862 0.3256 0.5253
vn -0.9239 -0.3826 0.0000
vn -0.7862 0.3257 -0.5252
vn -0.9087 0.3764 -0.1807
vn -0.5414 0.2242 0.8103
vn -0.5414 0.2243 0.8103
vn -0.5414 0.2243 -0.8103
vn -0.5414 0.2242 -0.8103
vn -0.3257 0.7862 -0.5252
vn 0.9087 0.3764 0.1807
vn 0.9087 0.3764 0.1808
vn -0.2242 0.5414 0.8103
vn -0.2243 0.5414 0.8103
vn -0.2243 0.5414 -0.8103
vn -0.2242 0.5414 -0.8103
vn -0.3764 0.9087 0.1807
vn -0.3256 0.7862 0.5253
vn 0.9239 0.3827 0.0000
vn -0.1946 0.0806 0.9776
vn -0.0806 0.1946 0.9776
vn 0.0806 0.1946 0.9776
vn 0.1946 0.0806 0.9776
vn 0.1946 -0.0806 0.9776
vn 0.0806 -0.1946 0.9776
vn -0.0806 -0.1946 0.9776
vn -0.1946 -0.0806 0.9776
vn -0.3826 0.9239 0.0000
vn -0.0000 0.0000 1.0000
vn -0.9239 -0.3827 0.0000
vn -0.9239 0.3827 0.0000
vn 0.3195 0.7714 -0.5503
vn 0.3195 0.7714 0.5503
vn 0.7716 0.3196 0.5500
vn 0.7714 0.3195 0.5503
vn 0.7716 0.3196 -0.5500
vn 0.7714 0.3195 -0.5503
vn 0.7714 -0.3195 0.5503
vn 0.7716 -0.3196 0.5500
vn 0.7715 -0.3195 -0.5503
vn 0.7716 -0.3196 -0.5500
vn 0.3195 -0.7714 -0.5503
vn 0.3196 -0.7716 -0.5500
vn 0.3195 -0.7715 0.5503
vn 0.3196 -0.7716 0.5500
vn -0.3196 -0.7716 -0.5500
vn -0.3195 -0.7714 -0.5503
vn -0.3196 -0.7716 0.5500
vn -0.3195 -0.7714 0.5503
vn -0.7714 -0.3195 0.5503
vn -0.7714 -0.3195 -0.5503
vn -0.7714 0.3195 0.5503
vn -0.7714 0.3195 -0.5503
vn -0.3195 0.7714 -0.5503
vn -0.3195 0.7714 0.5503
vn 0.3764 0.9087 -0.1807
vn -0.3582 -0.8646 0.3523
vn -0.3581 0.8647 0.3522
vn 0.3582 -0.8646 0.3523
vn 0.3581 0.8647 0.3522
vn 0.9771 -0.0000 0.2126
vn -0.3826 0.0000 -0.9239
vn -0.9238 0.0000 -0.3828
vn -0.9238 -0.0000 0.3828
vn -0.3826 -0.0000 0.9239
vn 0.3828 -0.0000 0.9238
vn 0.9238 -0.0000 0.3828
vn 0.0000 -1.0000 0.0000
vn 0.0000 1.0000 0.0000
vn 0.3828 0.0000 -0.9238
vn 1.0000 0.0000 0.0000
vn -0.5309 0.0000 -0.8474
vn 0.3996 -0.0000 0.9167
vn 0.9238 0.0000 -0.3828
vn -1.0000 -0.0000 0.0000
vn -0.9315 0.0000 -0.3637
vn -0.7098 0.0000 -0.7045
vn -0.7097 0.0000 -0.7045
vn -0.6545 0.0000 0.7561
vn 0.0000 0.4966 -0.8680
vn -0.9438 0.0000 -0.3304
vn -0.2915 0.0000 -0.9566
vn 0.0000 -0.4966 -0.8680
vn -0.4031 0.0000 -0.9151
vn -0.8036 0.0000 -0.5951
vn 0.5982 0.0000 -0.8013
vn -0.7357 0.0000 -0.6773
vn 0.7380 -0.0000 0.6748
vn -0.7105 0.0000 0.7037
vn 0.6593 0.0000 -0.7519
vn -0.9758 0.0000 -0.2185
vn 0.3775 0.0000 -0.9260
vn -0.3828 0.0000 0.9238
vn 0.8877 0.0000 -0.4604
vn 0.9749 0.0000 0.2224
vn -0.9105 0.0000 0.4134
vn -0.9106 0.0000 0.4134
vn 0.3826 0.0000 0.9239
vn -0.4156 0.0000 -0.9096
vn 0.9987 -0.0000 -0.0506
vn 0.9994 0.0000 -0.0360
vn -0.9771 0.0000 -0.2128
vn -0.9999 0.0000 0.0135
vn -0.9994 0.0000 0.0360
vn 0.3274 0.0000 -0.9449
vn 0.0054 -1.0000 0.0000
vn 0.0025 -1.0000 0.0056
vn 0.9096 -0.0000 0.4154
vn 0.9064 0.0000 0.4225
vn 0.3020 0.8980 0.3200
vn 0.3020 -0.1629 0.9393
vn 0.7292 0.6825 -0.0488
vn 0.7290 0.6828 -0.0490
vn 0.7288 -0.3786 0.5706
vn 0.7291 -0.3781 0.5705
vn 0.7289 0.3784 -0.5705
vn 0.7293 0.3778 -0.5704
vn 0.7292 -0.6825 0.0488
vn 0.7287 -0.6831 0.0493
vn 0.3021 0.1623 -0.9394
vn 0.3020 0.1629 -0.9393
vn 0.3020 -0.8981 -0.3198
vn 0.3020 -0.8980 -0.3200
vn -0.3020 0.1629 -0.9393
vn -0.3022 0.1623 -0.9393
vn -0.3020 -0.8980 -0.3200
vn -0.3020 -0.8981 -0.3198
vn -0.7293 0.3778 -0.5704
vn -0.7292 0.3780 -0.5705
vn -0.7290 -0.6828 0.0490
vn -0.7292 -0.6826 0.0488
vn -0.7293 0.6825 -0.0487
vn -0.7292 0.6826 -0.0488
vn -0.7291 -0.3781 0.5705
vn -0.7290 -0.3782 0.5705
vn -0.3020 0.8980 0.3200
vn -0.3020 -0.1629 0.9393
vn 0.7290 -0.6828 0.0490
vn 0.7290 -0.3782 0.5705
vn 0.7293 -0.3778 0.5705
vn 0.3021 -0.1623 0.9394
vn -0.3021 -0.1623 0.9394
vn -0.3021 -0.1625 0.9393
vn -0.7290 -0.6827 0.0490
vn -0.7289 -0.6828 0.0491
vn 0.7292 0.3780 -0.5705
vn 0.7291 0.3781 -0.5705
vn 0.7292 0.6826 -0.0488
vn 0.7293 0.6825 -0.0487
vn -0.3020 0.8981 0.3198
vn -0.7289 0.6828 -0.0491
vn -0.7288 0.3785 -0.5706
vn -0.7292 0.3780 -0.5704
vn -0.3019 0.1631 -0.9393
vn 0.0930 0.0062 -0.9956
vn 0.0919 0.0062 -0.9957
vn 0.0874 -0.9957 0.0312
vn 0.0874 -0.9957 0.0311
vn -0.3149 0.9477 -0.0518
vn -0.3149 0.9477 -0.0519
vn -0.9928 -0.0745 -0.0935
vn -0.9928 -0.0745 -0.0934
vn 0.9928 0.0744 0.0934
vn -0.0929 -0.0062 0.9957
vn -0.0920 -0.0061 0.9957
vn 0.9916 0.0902 0.0930
vn 0.9916 0.0904 0.0929
vn 0.3466 -0.9364 0.0546
vn -0.9915 -0.0906 -0.0930
vn -0.9916 -0.0902 -0.0929
vn -0.1030 -0.9946 0.0129
vn -0.0930 -0.0062 0.9956
vn 0.0794 0.9967 -0.0152
vn 0.0794 0.9967 -0.0146
vn 0.0884 -0.9956 0.0318
vn 0.0929 0.0062 -0.9957
vn 0.1013 -0.0209 -0.9946
vn 0.1012 -0.0314 -0.9944
vn 0.0944 -0.0217 -0.9953
vn -0.1013 0.0228 0.9946
vn -0.1012 0.0298 0.9944
vn -0.0954 0.0215 0.9952
vn -0.0991 0.0211 0.9949
vn -0.0945 0.0098 0.9955
vn -0.1005 0.0229 0.9947
vn 0.0993 -0.0213 -0.9948
vn 0.0943 -0.0091 -0.9955
vn 0.0998 -0.0211 -0.9948
usemtl default
s off
f 1/1/1 2/2/1 3/3/1
f 1/4/2 3/3/2 4/5/2
f 1/6/3 4/5/3 5/7/3
f 1/8/4 5/7/4 6/9/4
f 1/10/5 6/9/5 7/11/5
f 1/12/6 7/11/6 8/13/6
f 1/14/7 8/15/7 9/16/7
f 1/17/8 9/16/8 2/2/8
f 10/18/9 11/19/9 12/20/9
f 10/18/10 12/20/10 13/21/10
f 14/22/11 15/23/11 16/24/11
f 14/22/11 16/24/11 11/19/11
f 17/25/12 18/26/12 19/27/12
f 17/25/13 19/27/13 20/28/13
f 2/2/14 10/18/14 13/21/14
f 2/2/15 13/21/15 3/3/15
f 21/29/16 22/30/16 23/31/16
f 21/29/16 23/31/16 24/32/16
f 22/30/17 17/25/17 20/28/17
f 22/30/18 20/28/18 23/31/18
f 25/33/19 26/34/19 27/35/19
f 25/33/19 27/35/19 28/36/19
f 20/28/20 19/27/20 29/37/20
f 20/28/20 29/37/20 30/38/20
f 3/3/21 13/21/21 31/39/21
f 3/3/21 31/39/21 4/5/21
f 32/40/22 33/41/22 34/42/22
f 32/40/23 34/42/23 35/43/23
f 23/31/24 20/28/24 30/38/24
f 23/31/25 30/38/25 33/41/25
f 26/44/26 36/45/26 37/46/26
f 26/44/26 37/46/26 27/47/26
f 13/21/27 12/20/27 38/48/27
f 13/21/28 38/48/28 31/39/28
f 12/20/29 39/49/29 40/50/29
f 12/20/30 40/50/30 38/48/30
f 4/5/31 31/39/31 41/51/31
f 4/5/31 41/51/31 5/7/31
f 35/43/32 34/42/32 42/52/32
f 35/43/33 42/52/33 43/53/33
f 33/41/34 30/38/34 44/54/34
f 33/41/35 44/54/35 34/42/35
f 45/55/36 46/56/36 47/57/36
f 45/55/36 47/57/36 48/58/36
f 31/39/37 38/48/37 49/59/37
f 31/39/38 49/59/38 41/51/38
f 38/48/39 40/50/39 50/60/39
f 38/48/40 50/60/40 49/59/40
f 30/38/41 29/37/41 51/61/41
f 30/38/41 51/61/41 44/54/41
f 52/62/42 25/63/42 28/64/42
f 52/62/42 28/64/42 53/65/42
f 41/51/43 49/59/43 54/66/43
f 41/51/44 54/66/44 55/67/44
f 49/59/45 50/60/45 56/68/45
f 49/59/46 56/68/46 54/66/46
f 44/54/47 51/61/47 57/69/47
f 44/54/47 57/69/47 58/70/47
f 5/7/48 41/51/48 55/67/48
f 5/7/48 55/67/48 6/9/48
f 43/53/49 42/52/49 59/71/49
f 43/53/50 59/71/50 60/72/50
f 34/42/51 44/54/51 58/70/51
f 34/42/52 58/70/52 42/52/52
f 55/67/53 54/66/53 61/73/53
f 55/67/54 61/73/54 62/74/54
f 54/66/55 56/68/55 63/75/55
f 54/66/56 63/75/56 61/73/56
f 58/70/57 57/69/57 64/76/57
f 58/70/57 64/76/57 65/77/57
f 6/9/58 55/67/58 62/74/58
f 6/9/58 62/74/58 7/11/58
f 60/72/59 59/71/59 66/78/59
f 60/72/59 66/78/59 67/79/59
f 42/52/60 58/70/60 65/77/60
f 42/52/61 65/77/61 59/71/61
f 37/80/62 48/81/62 68/82/62
f 37/80/62 68/82/62 69/83/62
f 7/11/63 62/74/63 70/84/63
f 7/11/64 70/84/64 8/13/64
f 67/85/65 66/86/65 71/87/65
f 67/85/65 71/87/65 72/88/65
f 59/71/66 65/77/66 73/89/66
f 59/71/67 73/89/67 66/78/67
f 74/90/68 75/91/68 76/92/68
f 74/90/68 76/92/68 77/93/68
f 62/74/69 61/73/69 78/94/69
f 62/74/70 78/94/70 70/84/70
f 61/73/71 63/75/71 79/95/71
f 61/73/71 79/95/71 78/94/71
f 65/77/72 64/76/72 80/96/72
f 65/77/73 80/96/73 73/89/73
f 66/86/74 73/97/74 81/98/74
f 66/86/74 81/98/74 71/87/74
f 75/99/75 52/100/75 53/101/75
f 75/99/75 53/101/75 76/102/75
f 70/103/76 78/104/76 14/22/76
f 70/103/76 14/22/76 82/105/76
f 78/104/77 79/106/77 15/23/77
f 78/104/77 15/23/77 14/22/77
f 73/97/78 80/107/78 83/108/78
f 73/97/79 83/108/79 81/98/79
f 8/15/80 70/103/80 82/105/80
f 8/15/81 82/105/81 9/16/81
f 82/105/82 14/22/82 11/19/82
f 82/105/82 11/19/82 10/18/82
f 24/32/83 23/31/83 33/41/83
f 24/32/84 33/41/84 32/40/84
f 81/98/85 83/108/85 18/26/85
f 81/98/86 18/26/86 17/25/86
f 9/16/87 82/105/87 10/18/87
f 9/16/88 10/18/88 2/2/88
f 72/88/89 71/87/89 22/30/89
f 72/88/89 22/30/89 21/29/89
f 71/87/90 81/98/90 17/25/90
f 71/87/90 17/25/90 22/30/90
f 36/109/91 45/110/91 48/81/91
f 36/109/91 48/81/91 37/80/91
f 80/107/92 75/91/92 74/90/92
f 80/107/92 74/90/92 83/108/92
f 83/108/93 74/111/93 46/112/93
f 83/108/93 46/112/93 18/26/93
f 18/26/94 46/56/94 45/55/94
f 18/26/94 45/55/94 19/27/94
f 19/27/95 45/110/95 36/109/95
f 19/27/95 36/109/95 29/37/95
f 29/37/96 36/45/96 26/44/96
f 29/37/96 26/44/96 51/61/96
f 51/61/97 26/34/97 25/33/97
f 51/61/97 25/33/97 57/69/97
f 57/69/98 25/63/98 52/62/98
f 57/69/98 52/62/98 64/76/98
f 64/76/99 52/100/99 75/99/99
f 64/76/99 75/99/99 80/96/99
f 46/112/100 74/111/100 77/113/100
f 46/112/100 77/113/100 47/114/100
f 76/102/62 53/101/62 84/115/62
f 76/102/62 84/115/62 85/116/62
f 86/117/101 87/118/101 88/119/101
f 86/117/101 88/119/101 89/120/101
f 90/121/101 91/122/101 92/123/101
f 90/121/101 92/123/101 93/124/101
f 94/125/101 86/117/101 89/120/101
f 94/125/101 89/120/101 95/126/101
f 96/127/101 90/121/101 93/124/101
f 96/127/101 93/124/101 97/128/101
f 91/122/101 94/125/101 95/126/101
f 91/122/101 95/126/101 92/123/101
f 77/93/62 76/92/62 85/129/62
f 77/93/62 85/129/62 98/130/62
f 84/131/42 99/132/42 92/133/42
f 84/131/42 92/133/42 95/126/42
f 100/134/26 69/135/26 97/136/26
f 100/134/26 97/136/26 93/124/26
f 69/83/91 68/82/91 101/137/91
f 69/83/91 101/137/91 97/128/91
f 102/138/100 98/139/100 88/140/100
f 102/138/100 88/140/100 103/141/100
f 85/116/102 84/115/102 95/142/102
f 85/116/102 95/142/102 89/120/102
f 99/143/19 100/144/19 93/145/19
f 99/143/19 93/145/19 92/123/19
f 98/130/103 85/129/103 89/146/103
f 98/130/103 89/146/103 88/119/103
f 68/147/36 102/148/36 103/149/36
f 68/147/36 103/149/36 101/150/36
f 87/118/101 104/151/101 103/141/101
f 87/118/101 103/141/101 88/119/101
f 53/65/62 28/64/62 99/132/62
f 53/65/62 99/132/62 84/131/62
f 28/36/62 27/35/62 100/144/62
f 28/36/62 100/144/62 99/143/62
f 104/151/101 105/152/101 101/150/101
f 104/151/101 101/150/101 103/141/101
f 27/47/62 37/46/62 69/135/62
f 27/47/62 69/135/62 100/134/62
f 48/58/62 47/57/62 102/148/62
f 48/58/62 102/148/62 68/147/62
f 105/152/101 96/127/101 97/128/101
f 105/152/101 97/128/101 101/150/101
f 47/114/62 77/113/62 98/139/62
f 47/114/62 98/139/62 102/138/62
f 39/49/104 16/24/104 106/153/104
f 39/49/104 106/153/104 107/154/104
f 107/154/105 106/153/105 21/29/105
f 107/154/105 21/29/105 24/32/105
f 24/32/106 32/40/106 108/155/106
f 24/32/107 108/155/107 107/154/107
f 107/154/108 108/155/108 40/50/108
f 107/154/109 40/50/109 39/49/109
f 32/40/110 35/43/110 109/156/110
f 32/40/111 109/156/111 108/155/111
f 108/155/112 109/156/112 50/60/112
f 108/155/113 50/60/113 40/50/113
f 56/68/114 50/60/114 109/156/114
f 56/68/115 109/156/115 110/157/115
f 110/157/116 109/156/116 35/43/116
f 110/157/117 35/43/117 43/53/117
f 63/75/118 56/68/118 110/157/118
f 63/75/119 110/157/119 111/158/119
f 111/158/120 110/157/120 43/53/120
f 111/158/121 43/53/121 60/72/121
f 60/72/122 67/79/122 112/159/122
f 60/72/122 112/159/122 111/158/122
f 111/158/123 112/159/123 79/95/123
f 111/158/123 79/95/123 63/75/123
f 67/85/124 72/88/124 113/160/124
f 67/85/124 113/160/124 112/161/124
f 112/161/125 113/160/125 15/23/125
f 112/161/125 15/23/125 79/106/125
f 16/24/126 15/23/126 113/160/126
f 16/24/126 113/160/126 106/153/126
f 106/153/127 113/160/127 72/88/127
f 106/153/127 72/88/127 21/29/127
f 11/19/128 16/24/128 39/49/128
f 11/19/128 39/49/128 12/20/128
f 87/118/101 105/152/101 104/151/101
f 105/152/101 87/118/101 86/117/101
f 105/152/101 86/117/101 96/127/101
f 96/127/101 86/117/101 94/125/101
f 96/127/101 94/125/101 90/121/101
f 90/121/101 94/125/101 91/122/101
f 114/162/129 115/163/129 116/164/129
f 117/165/130 118/166/130 119/167/130
f 120/168/131 115/163/131 114/162/131
f 119/167/132 118/166/132 121/169/132
f 122/170/75 116/171/75 123/172/75
f 122/170/75 123/172/75 124/173/75
f 122/170/68 124/173/68 125/174/68
f 122/170/68 125/174/68 117/175/68
f 126/176/133 127/177/133 128/178/133
f 126/176/133 128/178/133 129/179/133
f 130/180/134 131/181/134 132/182/134
f 130/180/134 132/182/134 133/183/134
f 131/181/135 134/184/135 135/185/135
f 131/181/135 135/185/135 132/182/135
f 134/184/136 136/186/136 137/187/136
f 134/184/136 137/187/136 135/185/136
f 136/186/137 138/188/137 139/189/137
f 136/186/137 139/189/137 137/187/137
f 138/188/138 140/190/138 141/191/138
f 138/188/138 141/191/138 139/189/138
f 140/190/139 142/192/139 143/193/139
f 140/190/139 143/193/139 141/191/139
f 130/180/134 144/194/134 145/195/134
f 130/180/134 145/195/134 131/181/134
f 146/196/140 147/197/140 148/198/140
f 146/196/140 148/198/140 142/199/140
f 149/200/141 150/201/141 151/202/141
f 149/200/141 151/202/141 133/203/141
f 146/196/142 152/204/142 144/205/142
f 146/196/142 144/205/142 130/206/142
f 148/207/143 147/208/143 150/209/143
f 148/207/143 150/209/143 153/210/143
f 147/208/143 154/211/143 151/212/143
f 147/208/143 151/212/143 150/209/143
f 133/183/144 151/213/144 154/214/144
f 133/183/144 154/214/144 130/180/144
f 130/206/140 154/215/140 147/197/140
f 130/206/140 147/197/140 146/196/140
f 143/216/141 153/217/141 150/201/141
f 143/216/141 150/201/141 149/200/141
f 142/192/145 148/207/145 153/210/145
f 142/192/145 153/210/145 143/193/145
f 137/187/136 155/218/136 156/219/136
f 137/187/136 156/219/136 135/185/136
f 133/203/142 157/220/142 158/221/142
f 133/203/142 158/221/142 149/200/142
f 132/182/134 159/222/134 157/223/134
f 132/182/134 157/223/134 133/183/134
f 140/190/139 160/224/139 161/225/139
f 140/190/139 161/225/139 142/192/139
f 143/193/139 162/226/139 163/227/139
f 143/193/139 163/227/139 141/191/139
f 136/186/137 164/228/137 165/229/137
f 136/186/137 165/229/137 138/188/137
f 139/189/137 166/230/137 155/218/137
f 139/189/137 155/218/137 137/187/137
f 131/181/135 145/195/135 167/231/135
f 131/181/135 167/231/135 134/184/135
f 142/199/146 161/232/146 152/204/146
f 142/199/146 152/204/146 146/196/146
f 135/185/135 156/219/135 159/222/135
f 135/185/135 159/222/135 132/182/135
f 149/200/146 158/221/146 162/233/146
f 149/200/146 162/233/146 143/216/146
f 138/188/138 165/229/138 160/224/138
f 138/188/138 160/224/138 140/190/138
f 141/191/138 163/227/138 166/230/138
f 141/191/138 166/230/138 139/189/138
f 134/184/136 167/231/136 164/228/136
f 134/184/136 164/228/136 136/186/136
f 125/174/141 118/166/141 117/165/141
f 118/166/141 125/174/141 127/177/141
f 118/166/141 127/177/141 121/234/141
f 121/234/141 127/177/141 126/176/141
f 124/235/101 127/177/101 125/236/101
f 127/177/101 124/235/101 128/178/101
f 128/178/101 124/235/101 123/237/101
f 115/163/140 123/238/140 116/239/140
f 123/238/140 115/163/140 128/178/140
f 128/178/140 115/163/140 120/240/140
f 128/178/140 120/240/140 129/179/140
f 129/179/62 121/241/62 126/176/62
f 121/241/62 129/179/62 117/242/62
f 117/242/62 129/179/62 122/243/62
f 122/243/62 129/179/62 116/244/62
f 116/244/101 129/179/101 120/245/101
f 116/244/62 120/245/62 114/246/62
f 117/242/62 119/247/62 121/241/62
f 155/248/141 159/249/141 156/250/141
f 159/249/141 155/248/141 166/251/141
f 159/249/141 166/251/141 157/220/141
f 157/220/141 166/251/141 163/252/141
f 157/220/141 163/252/141 158/221/141
f 158/221/141 163/252/141 162/233/141
f 145/253/140 164/254/140 167/255/140
f 164/254/140 145/253/140 144/205/140
f 164/254/140 144/205/140 165/256/140
f 165/256/140 144/205/140 152/204/140
f 165/256/140 152/204/140 160/257/140
f 160/257/140 152/204/140 161/232/140
f 168/258/147 169/259/147 170/260/147
f 168/258/147 170/260/147 171/261/147
f 172/262/148 173/263/148 174/264/148
f 172/262/148 174/264/148 175/265/148
f 176/266/149 177/267/149 178/268/149
f 176/266/150 178/268/150 179/269/150
f 177/267/151 180/270/151 181/271/151
f 177/267/151 181/271/151 178/268/151
f 182/272/152 183/273/152 184/274/152
f 182/272/152 184/274/152 185/275/152
f 181/276/153 180/277/153 186/278/153
f 181/276/153 186/278/153 187/279/153
f 188/280/153 189/281/153 190/282/153
f 188/280/153 190/282/153 191/283/153
f 192/284/154 187/279/154 186/278/154
f 192/284/154 186/278/154 193/285/154
f 194/286/154 189/281/154 188/280/154
f 194/286/154 188/280/154 195/287/154
f 196/288/151 191/289/151 190/290/151
f 196/288/151 190/290/151 197/291/151
f 198/292/155 182/272/155 185/275/155
f 198/292/155 185/275/155 199/293/155
f 200/294/156 201/295/156 202/296/156
f 200/294/156 202/296/156 203/297/156
f 200/294/62 203/297/62 204/298/62
f 200/294/62 204/298/62 205/299/62
f 206/300/157 207/301/157 208/302/157
f 206/300/157 208/302/157 209/303/157
f 210/304/157 205/305/157 204/306/157
f 210/304/157 204/306/157 211/307/157
f 212/308/158 202/309/158 201/310/158
f 212/308/158 201/310/158 213/311/158
f 208/312/62 207/313/62 214/314/62
f 208/312/62 214/314/62 215/315/62
f 214/314/156 216/316/156 217/317/156
f 214/314/156 217/317/156 215/315/156
f 179/269/158 217/318/158 216/319/158
f 179/269/158 216/319/158 176/266/158
f 213/311/150 196/288/150 197/291/150
f 213/311/150 197/291/150 212/308/150
f 218/320/159 173/263/159 172/262/159
f 218/320/159 172/262/159 219/321/159
f 220/322/160 221/323/160 222/324/160
f 220/322/160 222/324/160 223/325/160
f 171/261/161 224/326/161 225/327/161
f 171/261/161 225/327/161 226/328/161
f 169/259/162 227/329/162 228/330/162
f 169/259/162 228/330/162 229/331/162
f 230/332/161 231/333/161 232/334/161
f 230/332/161 232/334/161 168/258/161
f 174/264/163 233/335/163 234/336/163
f 174/264/163 234/336/163 175/265/163
f 231/333/136 235/337/136 236/338/136
f 231/333/136 236/338/136 232/334/136
f 237/339/162 238/340/162 239/341/162
f 237/339/162 239/341/162 170/260/162
f 240/342/164 241/343/164 242/344/164
f 240/342/164 242/344/164 243/345/164
f 244/346/165 245/347/165 246/348/165
f 244/346/165 246/348/165 247/349/165
f 238/340/166 240/342/166 243/345/166
f 238/340/166 243/345/166 239/341/166
f 227/329/166 248/350/166 249/351/166
f 227/329/166 249/351/166 228/330/166
f 224/326/136 244/346/136 247/349/136
f 224/326/136 247/349/136 225/327/136
f 250/352/167 251/353/167 252/354/167
f 250/352/167 252/354/167 253/355/167
f 235/337/165 254/356/165 255/357/165
f 235/337/165 255/357/165 236/338/165
f 248/350/164 256/358/164 257/359/164
f 248/350/164 257/359/164 249/351/164
f 258/360/168 259/361/168 260/362/168
f 258/360/169 260/362/169 261/363/169
f 262/364/169 263/365/169 264/366/169
f 262/364/168 264/366/168 265/367/168
f 245/347/170 263/365/170 262/364/170
f 245/347/170 262/364/170 246/348/170
f 241/343/171 265/367/171 264/366/171
f 241/343/171 264/366/171 242/344/171
f 254/356/170 259/361/170 258/360/170
f 254/356/170 258/360/170 255/357/170
f 256/358/171 261/363/171 260/362/171
f 256/358/171 260/362/171 257/359/171
f 251/353/140 234/368/140 199/369/140
f 234/368/140 251/353/140 250/352/140
f 234/368/140 250/352/140 175/370/140
f 175/370/140 250/352/140 266/371/140
f 175/370/140 266/371/140 172/372/140
f 172/372/140 266/371/140 219/373/140
f 198/374/140 199/369/140 234/368/140
f 199/369/172 252/354/172 251/353/172
f 252/354/172 199/369/172 184/375/172
f 184/375/173 199/369/173 185/376/173
f 222/324/140 212/308/140 197/291/140
f 212/308/140 222/324/140 267/377/140
f 212/308/140 267/377/140 203/378/140
f 212/308/140 203/378/140 202/379/140
f 203/378/140 267/377/140 204/306/140
f 204/306/140 267/377/140 211/307/140
f 223/325/140 194/380/140 268/381/140
f 194/380/140 223/325/140 189/382/140
f 189/382/140 223/325/140 222/324/140
f 189/382/140 222/324/140 197/291/140
f 189/382/140 197/291/140 190/290/140
f 183/383/141 233/384/141 184/385/141
f 252/386/141 233/384/141 253/387/141
f 233/384/141 252/386/141 184/385/141
f 253/387/141 233/384/141 174/388/141
f 253/387/141 174/388/141 269/389/141
f 269/389/141 174/388/141 173/390/141
f 269/389/141 173/390/141 218/391/141
f 188/280/141 270/392/141 195/287/141
f 270/392/141 188/280/141 196/393/141
f 196/393/141 188/280/141 191/283/141
f 270/392/141 213/311/141 210/394/141
f 213/311/141 270/392/141 196/393/141
f 210/394/141 213/311/141 200/294/141
f 200/294/141 213/311/141 201/395/141
f 210/394/141 200/294/141 205/299/141
f 192/284/174 270/392/174 271/396/174
f 270/392/174 192/284/174 195/287/174
f 195/287/143 192/284/143 218/320/143
f 195/287/101 218/320/101 219/321/101
f 183/273/175 234/336/175 233/335/175
f 234/336/175 183/273/175 198/292/175
f 198/292/176 183/273/176 182/272/176
f 206/300/147 272/397/147 273/398/147
f 272/397/147 206/300/147 274/399/147
f 193/400/141 220/401/141 275/402/141
f 220/401/141 193/400/141 186/403/141
f 220/401/141 186/403/141 221/404/141
f 221/404/141 186/403/141 177/267/141
f 177/267/141 186/403/141 180/270/141
f 221/404/141 176/266/141 273/398/141
f 176/266/141 221/404/141 177/267/141
f 273/398/141 176/266/141 214/405/141
f 214/405/141 176/266/141 216/319/141
f 273/398/141 214/405/141 207/301/141
f 273/398/141 207/301/141 206/300/141
f 192/406/177 269/389/177 218/391/177
f 269/389/177 192/406/177 275/402/177
f 275/402/177 192/406/177 193/400/177
f 229/331/141 272/397/141 274/399/141
f 272/397/141 229/331/141 230/332/141
f 230/332/141 229/331/141 228/330/141
f 230/332/141 228/330/141 231/333/141
f 231/333/141 228/330/141 249/351/141
f 231/333/141 249/351/141 235/337/141
f 235/337/141 249/351/141 257/359/141
f 235/337/141 257/359/141 254/356/141
f 254/356/141 257/359/141 259/361/141
f 259/361/141 257/359/141 260/362/141
f 271/396/140 179/407/140 178/268/140
f 179/407/140 271/396/140 209/408/140
f 179/407/140 209/408/140 215/315/140
f 179/407/140 215/315/140 217/317/140
f 215/315/140 209/408/140 208/312/140
f 271/396/140 187/279/140 192/284/140
f 187/279/140 271/396/140 178/268/140
f 187/279/140 178/268/140 181/276/140
f 221/409/101 267/410/101 222/411/101
f 267/410/101 221/409/101 276/412/101
f 276/412/101 221/409/101 226/328/101
f 226/328/101 221/409/101 171/261/101
f 171/261/101 221/409/101 168/258/101
f 168/258/101 221/409/101 272/413/101
f 272/413/101 221/409/101 273/414/101
f 230/332/101 168/258/101 272/413/101
f 232/334/178 169/259/178 168/258/178
f 169/259/179 232/334/179 227/329/179
f 227/329/140 232/334/140 248/350/140
f 248/350/140 232/334/140 236/338/140
f 248/350/140 236/338/140 256/358/140
f 256/358/140 236/338/140 255/357/140
f 256/358/140 255/357/140 258/360/140
f 256/358/140 258/360/140 261/363/140
f 277/415/147 267/377/147 276/416/147
f 267/377/147 277/415/147 211/307/147
f 170/260/62 277/417/62 237/339/62
f 277/417/62 270/392/62 210/394/62
f 270/392/62 277/417/62 271/396/62
f 271/396/62 277/417/62 170/260/62
f 271/396/62 170/260/62 169/259/62
f 271/396/62 169/259/62 274/418/62
f 274/418/62 169/259/62 229/331/62
f 271/396/62 274/418/62 209/408/62
f 195/419/177 268/381/177 194/380/177
f 268/381/177 195/419/177 266/371/177
f 266/371/177 195/419/177 219/373/177
f 250/352/180 269/420/180 266/371/180
f 269/420/180 250/352/180 253/355/180
f 223/325/181 275/421/181 220/322/181
f 275/421/181 223/325/181 268/381/181
f 275/421/143 268/381/143 266/371/143
f 275/421/101 266/371/101 269/420/101
f 226/328/140 277/415/140 276/416/140
f 277/415/140 226/328/140 237/339/140
f 237/339/140 226/328/140 225/327/140
f 237/339/140 225/327/140 238/340/140
f 238/340/140 225/327/140 240/342/140
f 240/342/140 225/327/140 247/349/140
f 240/342/140 247/349/140 241/343/140
f 241/343/140 247/349/140 246/348/140
f 241/343/140 246/348/140 262/364/140
f 241/343/140 262/364/140 265/367/140
f 239/341/141 171/261/141 170/260/141
f 171/261/141 239/341/141 224/326/141
f 224/326/141 239/341/141 243/345/141
f 224/326/141 243/345/141 244/346/141
f 244/346/141 243/345/141 242/344/141
f 244/346/141 242/344/141 245/347/141
f 245/347/141 242/344/141 263/365/141
f 263/365/141 242/344/141 264/366/141
f 278/422/182 279/423/182 280/424/182
f 278/422/182 280/424/182 281/425/182
f 282/426/183 283/427/183 281/428/183
f 282/426/183 281/428/183 280/429/183
f 284/430/184 278/422/184 281/425/184
f 284/430/185 281/425/185 285/431/185
f 283/427/186 286/432/186 285/433/186
f 283/427/187 285/433/187 281/428/187
f 287/434/188 284/430/188 285/431/188
f 287/434/189 285/431/189 288/435/189
f 286/432/190 289/436/190 288/437/190
f 286/432/191 288/437/191 285/433/191
f 290/438/192 287/434/192 288/435/192
f 290/438/193 288/435/193 291/439/193
f 289/436/194 292/440/194 291/441/194
f 289/436/195 291/441/195 288/437/195
f 293/442/196 290/438/196 291/439/196
f 293/442/197 291/439/197 294/443/197
f 292/440/198 295/444/198 294/445/198
f 292/440/199 294/445/199 291/441/199
f 296/446/200 293/442/200 294/443/200
f 296/446/201 294/443/201 297/447/201
f 295/444/202 298/448/202 297/449/202
f 295/444/203 297/449/203 294/445/203
f 299/450/204 296/446/204 297/447/204
f 299/450/205 297/447/205 300/451/205
f 298/448/206 301/452/206 300/453/206
f 298/448/207 300/453/207 297/449/207
f 279/423/208 299/450/208 300/451/208
f 279/423/208 300/451/208 280/424/208
f 301/452/209 282/426/209 280/429/209
f 301/452/209 280/429/209 300/453/209
f 302/454/195 303/455/195 282/426/195
f 302/454/195 282/426/195 301/452/195
f 304/456/190 302/454/190 301/452/190
f 304/456/210 301/452/210 298/448/210
f 305/457/211 304/456/211 298/448/211
f 305/457/212 298/448/212 295/444/212
f 306/458/213 305/457/213 295/444/213
f 306/458/213 295/444/213 292/440/213
f 307/459/214 306/458/214 292/440/214
f 307/459/215 292/440/215 289/436/215
f 308/460/207 307/459/207 289/436/207
f 308/460/207 289/436/207 286/432/207
f 309/461/216 308/460/216 286/432/216
f 309/461/217 286/432/217 283/427/217
f 303/455/199 309/461/199 283/427/199
f 303/455/198 283/427/198 282/426/198
f 303/462/193 302/463/193 299/450/193
f 303/462/193 299/450/193 279/423/193
f 302/463/218 304/464/218 296/446/218
f 302/463/219 296/446/219 299/450/219
f 304/464/220 305/465/220 293/442/220
f 304/464/221 293/442/221 296/446/221
f 305/465/182 306/466/182 290/438/182
f 305/465/182 290/438/182 293/442/182
f 306/466/222 307/467/222 287/434/222
f 306/466/208 287/434/208 290/438/208
f 307/467/204 308/468/204 284/430/204
f 307/467/223 284/430/223 287/434/223
f 308/468/224 309/469/224 278/422/224
f 308/468/225 278/422/225 284/430/225
f 309/469/196 303/462/196 279/423/196
f 309/469/226 279/423/226 278/422/226
f 310/470/227 311/471/227 312/472/227
f 310/470/228 312/472/228 313/473/228
f 311/471/229 314/474/229 315/475/229
f 311/471/230 315/475/230 312/472/230
f 316/476/231 317/477/231 318/478/231
f 316/476/232 318/478/232 319/479/232
f 315/475/233 320/480/233 313/481/233
f 315/475/234 313/481/234 312/482/234
f 321/483/235 322/484/235 323/485/235
f 321/483/235 323/485/235 324/486/235
f 314/474/236 325/487/236 320/480/236
f 314/474/237 320/480/237 315/475/237
f 326/488/238 316/489/238 319/479/238
f 326/488/239 319/479/239 327/490/239
f 322/484/240 326/488/240 327/490/240
f 322/484/240 327/490/240 323/485/240
f 328/491/241 329/492/241 330/493/241
f 328/491/242 330/493/242 331/494/242
f 320/480/243 328/491/243 331/494/243
f 320/480/243 331/494/243 313/481/243
f 324/486/244 323/485/244 325/487/244
f 324/486/244 325/487/244 314/474/244
f 329/492/245 318/478/245 317/477/245
f 329/492/246 317/477/246 330/495/246
f 321/496/247 324/486/247 314/474/247
f 321/496/229 314/474/229 311/471/229
f 322/497/227 321/496/227 311/471/227
f 322/497/248 311/471/248 310/470/248
f 317/498/249 331/499/249 330/500/249
f 331/499/250 317/498/250 313/473/250
f 313/473/251 317/498/251 310/470/251
f 328/491/252 318/478/252 329/492/252
f 318/478/253 328/491/253 320/480/253
f 318/478/254 320/480/254 325/487/254
f 325/487/255 319/479/255 318/478/255
f 319/479/256 325/487/256 323/485/256
f 319/479/257 323/485/257 327/490/257
f 316/501/258 310/470/258 317/498/258
f 310/470/259 316/501/259 322/497/259
f 322/497/260 316/501/260 326/502/260
